<svg width="100" height="80" viewBox="0 0 100 80" fill="none" xmlns="http://www.w3.org/2000/svg">
<path d="M99.9998 40.001C99.9998 29.3921 95.7853 19.2176 88.2837 11.716C80.7821 4.21438 70.6077 1.39119e-06 59.9988 0C49.39 -1.39119e-06 39.2156 4.21438 31.714 11.716C24.2123 19.2176 19.9979 29.3921 19.9979 40.001H32.4984C36.6406 40.001 39.8711 36.5297 41.3883 32.6752C42.3845 30.1445 43.896 27.8189 45.8563 25.8584C49.6071 22.1076 54.6944 20.0005 59.9988 20.0005C65.3033 20.0005 70.3906 22.1076 74.1414 25.8584C77.8922 29.6092 79.9992 34.6965 79.9992 40.001H99.9998Z" fill="url(#paint0_linear_4_47)"/>
<path d="M76.9566 55.311C78.9669 50.4579 80.0017 45.2563 80.0017 40.0035H100C100 62.0953 82.0909 80.0042 59.999 80.0042C56.5393 80.0042 53.182 79.5651 49.9804 78.7394C51.7919 78.2727 53.5724 77.6783 55.3083 76.9594C60.1615 74.9491 64.5711 72.0028 68.2856 68.2883C72.0001 64.5739 74.9466 60.1642 76.9566 55.311Z" fill="#4392F9"/>
<path d="M0 39.9984C-7.51487e-07 45.2515 1.03465 50.4531 3.04488 55.3062C5.05513 60.1594 8.00156 64.5691 11.716 68.2835C15.4304 71.9977 19.8401 74.9443 24.6932 76.9546C29.5463 78.9648 34.7478 79.9994 40.001 79.9994C45.2538 79.9994 50.4554 78.9648 55.3085 76.9546C60.1617 74.9443 64.5714 71.9977 68.2858 68.2835C72.0003 64.5691 74.9466 60.1594 76.9569 55.3062C78.9671 50.4531 80.0019 45.2515 80.0019 39.9984H67.5014C63.3592 39.9984 60.1287 43.4697 58.6114 47.3239C58.5684 47.4338 58.524 47.5431 58.4789 47.6525C57.4738 50.0789 56.0006 52.2839 54.1433 54.141C52.2862 55.9981 50.0812 57.4715 47.6547 58.4766C45.2283 59.4818 42.6275 59.999 40.001 59.999C37.3744 59.999 34.7736 59.4818 32.3472 58.4766C29.9205 57.4715 27.7158 55.9981 25.8584 54.141C24.0012 52.2839 22.528 50.0789 21.5229 47.6525C20.5178 45.2257 20.0005 42.625 20.0005 39.9984H0Z" fill="url(#paint1_linear_4_47)"/>
<path d="M0.00378418 40.001C0.00378418 17.909 17.9127 0 40.0045 0C43.4634 0 46.8197 0.438995 50.0211 1.26434C43.152 3.0339 36.8153 6.615 31.7141 11.716C24.2125 19.2176 19.9982 29.3921 19.9982 40.001H0.00378418Z" fill="#F83758"/>
<defs>
<linearGradient id="paint0_linear_4_47" x1="99.9998" y1="20.0005" x2="19.9979" y2="20.0005" gradientUnits="userSpaceOnUse">
<stop stop-color="#CFE2FC"/>
<stop offset="1" stop-color="#4392F9"/>
</linearGradient>
<linearGradient id="paint1_linear_4_47" x1="2.62274e-06" y1="59.999" x2="80.0019" y2="59.999" gradientUnits="userSpaceOnUse">
<stop stop-color="#F8BCC6"/>
<stop offset="1" stop-color="#F83758"/>
</linearGradient>
</defs>
</svg>
